<svg id="Layer_1" data-name="Layer 1" xmlns="http://www.w3.org/2000/svg" xmlns:xlink="http://www.w3.org/1999/xlink" viewBox="0 0 154 38"><defs><style>.cls-1{fill:none;}.cls-2{clip-path:url(#clip-path);}.cls-3{clip-path:url(#clip-path-2);}.cls-4{fill:url(#linear-gradient);}.cls-5{clip-path:url(#clip-path-3);}.cls-6{fill:url(#linear-gradient-2);}.cls-7{fill:#3c53a2;}.cls-8{font-size:17.67px;}.cls-8,.cls-9{fill:#231f20;font-family:BrunoAceSC-Regular, Bruno Ace SC;}.cls-9{font-size:4.64px;}.cls-10{letter-spacing:-0.01em;}</style><clipPath id="clip-path"><rect class="cls-1" x="-8" y="-67" width="168" height="168"/></clipPath><clipPath id="clip-path-2"><path class="cls-1" d="M24.64,27.16l3.73,4.25,2.9-2.49-4-5a11.32,11.32,0,0,1-2.6,3.22"/></clipPath><linearGradient id="linear-gradient" x1="-2.25" y1="-11.99" x2="-2.1" y2="-11.99" gradientTransform="matrix(0, 43.86, 43.86, 0, 553.76, 123.09)" gradientUnits="userSpaceOnUse"><stop offset="0" stop-color="#404ea1"/><stop offset="0" stop-color="#404ea1"/><stop offset="1" stop-color="#3958a2"/></linearGradient><clipPath id="clip-path-3"><path class="cls-1" d="M15.48,26.27l-.35,0-.42-.07a8.52,8.52,0,1,1,1.43.12c-.22,0-.44,0-.66,0M4,15.71A12.35,12.35,0,0,0,14.07,30c.31.05.63.09.94.12l12.76,2.16L31.36,29l-7.81-1.32A12.34,12.34,0,1,0,4,15.71"/></clipPath><linearGradient id="linear-gradient-2" x1="0.12" y1="-3.03" x2="0.27" y2="-3.03" gradientTransform="matrix(0, 187.88, 187.88, 0, 586.21, -16.97)" gradientUnits="userSpaceOnUse"><stop offset="0" stop-color="#404ea1"/><stop offset="0" stop-color="#404ea1"/><stop offset="1" stop-color="#00a8aa"/></linearGradient></defs><g class="cls-2"><g class="cls-3"><rect class="cls-4" x="23.72" y="23.79" width="8.48" height="7.78" transform="translate(-4 50.61) rotate(-80.38)"/></g><g class="cls-5"><rect class="cls-6" x="1.49" y="2.52" width="31.19" height="32.61" transform="translate(-4.33 32.53) rotate(-80.38)"/></g><g class="cls-2"><polygon class="cls-7" points="16.46 31.83 12.16 34.34 6.84 33.03 11.14 30.52 16.46 31.83"/></g><text class="cls-8" transform="translate(34.01 24.19)">QUADIFLY</text><text class="cls-9" transform="translate(35.46 29.9) scale(1.28 1)">Driving your business <tspan class="cls-10" x="63.78" y="0">f</tspan><tspan x="66.82" y="0">orward</tspan></text><g class="cls-2"><polygon class="cls-7" points="21.03 17.85 16.61 20.43 11.15 19.09 15.56 16.5 21.03 17.85"/></g></g></svg>